<svg width="138" height="32" viewBox="0 0 138 32" fill="none" xmlns="http://www.w3.org/2000/svg">
<g clip-path="url(#clip0_210_2802)">
<path d="M39.2617 23.2H48.3439V20.6138H42.0312V8.53815H39.2617V23.2Z" fill="black"/>
<path d="M53.8015 23.5054C54.9012 23.5054 55.8684 23.261 56.7033 22.7723C57.545 22.2768 58.2 21.5946 58.6684 20.7258C59.1435 19.8502 59.3811 18.8422 59.3811 17.7018C59.3811 16.5682 59.1469 15.567 58.6786 14.6982C58.2102 13.8226 57.5552 13.137 56.7135 12.6414C55.8786 12.1459 54.908 11.8982 53.8015 11.8982C52.7154 11.8982 51.7549 12.1426 50.92 12.6313C50.0851 13.12 49.4301 13.8022 48.9549 14.6778C48.4798 15.5466 48.2422 16.5546 48.2422 17.7018C48.2422 18.8354 48.473 19.84 48.9346 20.7156C49.4029 21.5845 50.0546 22.2666 50.8895 22.7622C51.7244 23.2577 52.6951 23.5054 53.8015 23.5054ZM53.8015 20.9193C52.9394 20.9193 52.2844 20.6308 51.8364 20.0538C51.3951 19.4701 51.1746 18.6861 51.1746 17.7018C51.1746 16.7447 51.385 15.9709 51.8059 15.3803C52.2335 14.783 52.8987 14.4843 53.8015 14.4843C54.6772 14.4843 55.3355 14.7762 55.7767 15.36C56.2247 15.9438 56.4487 16.7243 56.4487 17.7018C56.4487 18.6454 56.2282 19.4191 55.7869 20.0233C55.3525 20.6206 54.6907 20.9193 53.8015 20.9193Z" fill="black"/>
<path d="M64.8576 23.5054C65.3735 23.5054 65.8486 23.4443 66.2831 23.3222C66.7243 23.2 67.1248 23.0269 67.4845 22.8029V23.9127C67.4981 24.32 67.3929 24.6594 67.1689 24.9309C66.9517 25.2092 66.6598 25.4162 66.2933 25.552C65.9267 25.6946 65.5364 25.7658 65.1224 25.7658C64.7354 25.7658 64.3757 25.681 64.0431 25.5113C63.7173 25.3416 63.4661 25.0938 63.2896 24.768L60.7238 26.0102C61.1446 26.7229 61.7453 27.2965 62.526 27.7309C63.3066 28.1721 64.1653 28.3927 65.102 28.3927C65.9098 28.3927 66.6598 28.2841 67.3521 28.0669C68.0445 27.8565 68.6283 27.5341 69.1034 27.0996C69.5854 26.6652 69.9146 26.112 70.0911 25.44C70.1521 25.2024 70.1929 24.9614 70.2133 24.717C70.2404 24.4795 70.254 24.225 70.254 23.9534V12.2036H67.8307V12.8146C67.4573 12.5226 67.0331 12.2986 66.558 12.1426C66.0896 11.9796 65.5704 11.8982 65.0001 11.8982C63.9481 11.8982 63.0317 12.1494 62.2511 12.6516C61.4705 13.1539 60.8629 13.8429 60.4285 14.7186C60.0009 15.5874 59.7871 16.5818 59.7871 17.7018C59.7871 18.8014 59.9975 19.789 60.4184 20.6647C60.846 21.5403 61.4399 22.2327 62.2001 22.7418C62.9604 23.2509 63.8462 23.5054 64.8576 23.5054ZM65.3056 21.0414C64.7083 21.0414 64.2196 20.8921 63.8394 20.5934C63.4593 20.2948 63.1776 19.8943 62.9944 19.392C62.8111 18.8829 62.7194 18.3195 62.7194 17.7018C62.7194 17.0909 62.8145 16.5343 63.0045 16.032C63.1946 15.5229 63.4865 15.119 63.8801 14.8203C64.2806 14.5149 64.7897 14.3622 65.4074 14.3622C66.2763 14.3622 66.8973 14.671 67.2707 15.2887C67.6441 15.8996 67.8307 16.704 67.8307 17.7018C67.8307 18.6996 67.6406 19.5074 67.2605 20.125C66.8872 20.736 66.2356 21.0414 65.3056 21.0414Z" fill="black"/>
<path d="M76.8317 23.5054C77.9314 23.5054 78.8987 23.261 79.7336 22.7723C80.5751 22.2768 81.2303 21.5946 81.6983 20.7258C82.1735 19.8502 82.4111 18.8422 82.4111 17.7018C82.4111 16.5682 82.1775 15.567 81.7087 14.6982C81.2407 13.8226 80.5855 13.137 79.7437 12.6414C78.9089 12.1459 77.9381 11.8982 76.8317 11.8982C75.7457 11.8982 74.7852 12.1426 73.9503 12.6313C73.1154 13.12 72.4604 13.8022 71.9852 14.6778C71.5101 15.5466 71.2725 16.5546 71.2725 17.7018C71.2725 18.8354 71.5033 19.84 71.9649 20.7156C72.4332 21.5845 73.0849 22.2666 73.9197 22.7622C74.7547 23.2577 75.7253 23.5054 76.8317 23.5054ZM76.8317 20.9193C75.9697 20.9193 75.3146 20.6308 74.8666 20.0538C74.4254 19.4701 74.2049 18.6861 74.2049 17.7018C74.2049 16.7447 74.4153 15.9709 74.8361 15.3803C75.2637 14.783 75.9289 14.4843 76.8317 14.4843C77.7074 14.4843 78.3658 14.7762 78.807 15.36C79.255 15.9438 79.479 16.7243 79.479 17.7018C79.479 18.6454 79.2584 19.4191 78.8172 20.0233C78.3828 20.6206 77.7209 20.9193 76.8317 20.9193Z" fill="black"/>
<path d="M83.6318 10.6763H86.4014V8.23273H83.6318V10.6763ZM83.6318 23.2H86.4014V12.2036H83.6318V23.2Z" fill="black"/>
<path d="M88.2119 28.0873H91.0015V22.8029C91.3615 23.0269 91.7583 23.2 92.1927 23.3222C92.6343 23.4443 93.1127 23.5054 93.6287 23.5054C94.6399 23.5054 95.5263 23.2509 96.2863 22.7418C97.0463 22.2327 97.6367 21.5403 98.0575 20.6647C98.4855 19.789 98.6991 18.8014 98.6991 17.7018C98.6991 16.5818 98.4823 15.5874 98.0479 14.7186C97.6199 13.8429 97.0159 13.1539 96.2351 12.6516C95.4543 12.1494 94.5383 11.8982 93.4863 11.8982C92.9159 11.8982 92.3935 11.9796 91.9183 12.1426C91.4495 12.2986 91.0287 12.5226 90.6559 12.8146V12.2036H88.2119V28.0873ZM93.1807 21.0414C92.2575 21.0414 91.6063 20.736 91.2255 20.125C90.8455 19.5074 90.6559 18.6996 90.6559 17.7018C90.6559 16.704 90.8423 15.8996 91.2159 15.2887C91.5959 14.671 92.2167 14.3622 93.0791 14.3622C93.6967 14.3622 94.2023 14.5149 94.5959 14.8203C94.9967 15.119 95.2919 15.5229 95.4815 16.032C95.6719 16.5343 95.7671 17.0909 95.7671 17.7018C95.7671 18.3195 95.6751 18.8829 95.4919 19.392C95.3087 19.8943 95.0271 20.2948 94.6471 20.5934C94.2671 20.8921 93.7783 21.0414 93.1807 21.0414Z" fill="black"/>
<path d="M103.717 23.5054C105.155 23.5054 106.282 23.183 107.097 22.5382C107.911 21.8933 108.318 21.0075 108.318 19.8807C108.318 19.0254 108.053 18.3501 107.525 17.8546C107.001 17.359 106.113 16.9483 104.857 16.6226C104.001 16.4053 103.363 16.2288 102.942 16.093C102.529 15.9574 102.253 15.825 102.117 15.696C101.989 15.567 101.925 15.4075 101.925 15.2174C101.925 14.8984 102.077 14.6541 102.382 14.4843C102.695 14.3146 103.105 14.2468 103.614 14.2807C104.693 14.3622 105.285 14.8238 105.386 15.6654L108.217 15.1563C108.074 14.1586 107.585 13.3678 106.75 12.784C105.916 12.1934 104.85 11.8982 103.553 11.8982C102.223 11.8982 101.161 12.2104 100.366 12.8349C99.5726 13.4594 99.175 14.301 99.175 15.36C99.175 16.2017 99.4502 16.8669 99.9998 17.3556C100.549 17.8376 101.497 18.2516 102.841 18.5978C103.635 18.8082 104.218 18.9779 104.592 19.1069C104.972 19.2358 105.217 19.3682 105.325 19.504C105.433 19.633 105.488 19.8061 105.488 20.0233C105.488 20.3694 105.352 20.641 105.081 20.8378C104.809 21.0278 104.422 21.1229 103.92 21.1229C103.309 21.1229 102.803 20.977 102.403 20.685C102.009 20.3932 101.754 19.9894 101.639 19.4734L98.8086 19.901C98.9918 21.0482 99.5078 21.9374 100.357 22.5687C101.212 23.1932 102.332 23.5054 103.717 23.5054Z" fill="black"/>
<path d="M113.428 23.5259C114.222 23.5259 114.914 23.3935 115.505 23.1287C116.096 22.864 116.591 22.5111 116.992 22.0699V23.2H119.435V12.2036H116.645V17.7833C116.645 18.4621 116.567 19.0119 116.411 19.4327C116.262 19.8468 116.068 20.1624 115.831 20.3796C115.593 20.5901 115.339 20.7326 115.067 20.8073C114.796 20.8819 114.541 20.9193 114.304 20.9193C113.713 20.9193 113.255 20.7869 112.929 20.5222C112.61 20.2575 112.379 19.9283 112.236 19.5346C112.094 19.1408 112.009 18.7506 111.982 18.3636C111.955 17.9699 111.941 17.6475 111.941 17.3963V12.2036H109.131V18.3739C109.131 18.5571 109.144 18.849 109.172 19.2495C109.199 19.6499 109.277 20.0946 109.406 20.5833C109.535 21.0652 109.748 21.5302 110.048 21.9782C110.353 22.4262 110.777 22.7961 111.32 23.088C111.863 23.3799 112.566 23.5259 113.428 23.5259Z" fill="black"/>
<path d="M121.039 23.2H123.829V16.541C123.829 15.9098 124.001 15.3974 124.348 15.0036C124.701 14.6031 125.165 14.4029 125.743 14.4029C126.347 14.4029 126.819 14.6066 127.158 15.0138C127.504 15.4143 127.677 15.9777 127.677 16.704V23.2H130.447V16.541C130.447 15.9098 130.62 15.3974 130.966 15.0036C131.319 14.6031 131.784 14.4029 132.361 14.4029C132.965 14.4029 133.437 14.6066 133.776 15.0138C134.122 15.4143 134.296 15.9777 134.296 16.704V23.2H137.065V15.9709C137.065 14.7694 136.742 13.7988 136.097 13.0589C135.46 12.3122 134.513 11.9389 133.257 11.9389C132.551 11.9389 131.903 12.0916 131.312 12.397C130.721 12.7026 130.25 13.12 129.897 13.6494C129.612 13.1336 129.205 12.7195 128.675 12.4073C128.145 12.095 127.487 11.9389 126.7 11.9389C126.034 11.9389 125.424 12.0713 124.867 12.336C124.31 12.5939 123.849 12.9503 123.482 13.405V12.2036H121.039V23.2Z" fill="black"/>
<path d="M16.0322 0C7.19567 0 0.0322266 7.16344 0.0322266 16C8.86879 16 16.0322 8.83656 16.0322 0Z" fill="#144734"/>
<path d="M16.0322 32C24.8688 32 32.0322 24.8366 32.0322 16C23.1957 16 16.0322 23.1634 16.0322 32Z" fill="#144734"/>
<path d="M16.0322 0C24.8688 0 32.0322 7.16344 32.0322 16C23.1957 16 16.0322 8.83656 16.0322 0Z" fill="#107C41"/>
<path d="M16.0322 32C7.19567 32 0.0322258 24.8366 0.0322266 16C8.86879 16 16.0322 23.1634 16.0322 32Z" fill="#107C41"/>
</g>
<defs>
<clipPath id="clip0_210_2802">
<rect width="137.6" height="32" fill="white" transform="translate(0.0322266)"/>
</clipPath>
</defs>
</svg>
