<svg width="668" height="471" viewBox="0 0 668 471" fill="none" xmlns="http://www.w3.org/2000/svg">
<path d="M486.549 37.2875H344.216C339.876 37.2875 336.357 40.802 336.357 45.1375V147.972C336.357 152.308 339.876 155.822 344.216 155.822H486.549C490.889 155.822 494.408 152.308 494.408 147.972V45.1375C494.408 40.802 490.889 37.2875 486.549 37.2875Z" fill="#F2F6FB"/>
<path d="M360.122 146.6C352.221 146.6 345.816 140.138 345.816 132.167C345.816 124.195 352.221 117.733 360.122 117.733C368.022 117.733 374.427 124.195 374.427 132.167C374.427 140.138 368.022 146.6 360.122 146.6ZM360.153 132.106C361.208 132.106 362.064 131.254 362.064 130.202C362.064 129.151 361.208 128.299 360.153 128.299C359.097 128.299 358.242 129.151 358.242 130.202C358.242 131.254 359.097 132.106 360.153 132.106ZM360.153 133.058C358.24 133.058 356.689 134.603 356.689 136.508H363.617C363.617 134.603 362.066 133.058 360.153 133.058Z" fill="#D8DEED"/>
<path d="M345.816 63.2381C345.816 62.3692 346.518 61.6649 347.389 61.6649H447.686C448.555 61.6649 449.259 62.3704 449.259 63.2381V106.182C449.259 107.051 448.557 107.756 447.686 107.756H347.389C346.52 107.756 345.816 107.05 345.816 106.182V63.2381ZM384.687 129.478H463.635C465.219 129.478 466.502 130.76 466.502 132.342C466.502 133.923 465.219 135.206 463.635 135.206H384.687C383.103 135.206 381.82 133.923 381.82 132.342C381.82 130.76 383.103 129.478 384.687 129.478ZM384.687 138.785H477.988C479.572 138.785 480.855 140.068 480.855 141.649C480.855 143.231 479.572 144.513 477.988 144.513H384.687C383.103 144.513 381.82 143.231 381.82 141.649C381.82 140.068 383.103 138.785 384.687 138.785ZM384.687 120.171H443.541C445.124 120.171 446.408 121.453 446.408 123.034C446.408 124.616 445.124 125.898 443.541 125.898H384.687C383.103 125.898 381.82 124.616 381.82 123.034C381.82 121.453 383.103 120.171 384.687 120.171ZM336.357 43.9913C336.357 40.2889 339.362 37.2875 343.067 37.2875H488.003C491.709 37.2875 494.713 40.288 494.713 43.9913V50.695H336.357V43.9913Z" fill="#E1E5F0"/>
<path d="M461.489 97.6735H480.13C482.917 97.6735 485.177 99.9305 485.177 102.715C485.177 105.499 482.917 107.756 480.13 107.756H461.489C458.702 107.756 456.442 105.499 456.442 102.715C456.442 99.9305 458.702 97.6735 461.489 97.6735Z" fill="#A339FF"/>
<path d="M345.359 47.0386C346.959 47.0386 348.257 45.7425 348.257 44.1438C348.257 42.545 346.959 41.249 345.359 41.249C343.758 41.249 342.46 42.545 342.46 44.1438C342.46 45.7425 343.758 47.0386 345.359 47.0386Z" fill="#FF5645"/>
<path d="M354.817 47.0386C356.417 47.0386 357.715 45.7425 357.715 44.1438C357.715 42.545 356.417 41.249 354.817 41.249C353.216 41.249 351.918 42.545 351.918 44.1438C351.918 45.7425 353.216 47.0386 354.817 47.0386Z" fill="#FFCB3D"/>
<path d="M364.58 47.0386C366.181 47.0386 367.479 45.7425 367.479 44.1438C367.479 42.545 366.181 41.249 364.58 41.249C362.979 41.249 361.682 42.545 361.682 44.1438C361.682 45.7425 362.979 47.0386 364.58 47.0386Z" fill="#3ABF7C"/>
<path d="M474.662 321.693V293.472C474.662 276.359 474.662 259.285 474.662 242.212V216.032C474.662 215.09 458.355 214.305 438.748 214.305H434.661C415.092 214.305 398.746 215.09 398.746 216.032V321.771C398.746 322.713 415.053 323.498 434.661 323.498H438.748C458.316 323.538 474.662 322.713 474.662 321.693Z" fill="#D8DEED"/>
<path d="M358.705 418.758L358.863 418.837C359.688 419.269 360.749 419.033 361.142 418.287L407.155 333.861C407.587 333.076 407.234 332.094 406.409 331.663L406.251 331.584C405.426 331.152 404.365 331.388 403.972 332.134L392.577 353.015C385.15 366.674 377.724 380.293 370.258 393.952L357.959 416.482C357.527 417.267 357.88 418.287 358.705 418.758Z" fill="#D8DEED"/>
<path d="M472.973 330.21H444.171C426.724 330.21 409.277 330.21 391.87 330.21H365.15C364.207 330.21 363.382 330.995 363.382 331.937V332.133C363.382 333.075 364.168 333.86 365.15 333.86H473.052C473.995 333.86 474.82 333.075 474.82 332.133V331.937C474.82 330.995 473.995 330.21 472.973 330.21Z" fill="#D8DEED"/>
<path d="M487.001 416.482L474.702 393.952C467.275 380.293 459.849 366.674 452.383 353.014L440.987 332.133C440.594 331.388 439.534 331.113 438.708 331.584L438.551 331.662C437.726 332.094 437.372 333.115 437.805 333.86L483.818 418.287C484.211 419.033 485.272 419.308 486.097 418.837L486.254 418.758C487.079 418.287 487.433 417.267 487.001 416.482Z" fill="#D8DEED"/>
<path d="M290.739 318.532C293.563 319.934 294.528 321.321 294.678 322.535C294.898 324.577 294.421 326.218 293.282 328.917C291.077 334.314 289.203 339.784 287.697 345.4C287.255 345.305 286.815 345.205 286.376 345.1C287.297 348.606 287.265 351.287 287.265 351.287C245.979 351.287 225.681 351.287 226.369 351.287C227.402 351.287 234.868 331.094 261.213 329.042C261.969 328.982 262.704 328.944 263.418 328.926C263.579 328.257 263.856 327.652 264.358 326.738C263.254 324.035 262.405 317.701 262.116 315.063C262.116 314.955 262.153 314.847 262.19 314.738C262.339 314.449 262.746 314.305 263.079 314.449L271.419 318.531C272.843 318.011 274.349 317.538 275.938 317.065C277.443 316.605 278.948 316.214 280.363 315.854L283.349 308.106C283.459 307.809 283.826 307.624 284.12 307.772C284.23 307.809 284.303 307.883 284.377 307.995C285.922 310.172 289.718 315.724 290.739 318.532Z" fill="#FFCB3D"/>
<path d="M224.787 348.8C224.476 346.835 225.306 345.64 227.275 345.214C235.398 344.765 242.625 345.367 248.958 347.02C255.29 348.674 258.978 350.117 260.022 351.351H227.275C225.885 351.351 224.787 350.225 224.787 348.8ZM289.298 335.51C290.245 334.414 293.159 329.7 293.159 329.7C293.159 329.7 289.954 339.42 288.023 345.45C288.133 344.938 286.603 349.031 286.421 347.971V347.935C286.166 346.729 285.182 345.852 283.944 345.779C282.779 345.706 281.54 345.669 280.229 345.669C278.554 345.669 276.842 345.779 275.166 345.998L272.726 338.58C275.093 339.786 277.789 340.224 280.411 340.005C281.322 339.932 282.196 339.749 283.07 339.493C285.474 338.799 287.623 337.374 289.298 335.51ZM280.536 326.541C281.053 327.119 281.895 327.319 282.625 326.989C283.289 326.603 283.642 325.856 283.501 325.097C283.442 324.777 283.653 324.47 283.973 324.411C284.294 324.352 284.601 324.563 284.66 324.883C284.894 326.148 284.297 327.398 283.186 328.026L283.145 328.047C282.157 328.507 281.043 328.379 280.198 327.801C279.935 328.433 279.409 328.974 278.701 329.293C277.278 329.833 275.683 329.301 274.965 328.046C274.803 327.763 274.902 327.404 275.184 327.242C275.467 327.081 275.827 327.179 275.988 327.462C276.413 328.204 277.392 328.531 278.249 328.207C278.898 327.913 279.269 327.313 279.202 326.724C279.2 326.72 279.198 326.717 279.196 326.713C279.025 326.417 278.991 326.046 279.025 325.713C279.059 325.454 279.196 325.231 279.366 325.12C279.707 324.861 280.219 325.009 280.424 325.38C280.605 325.736 280.619 326.17 280.536 326.541ZM270.582 326.557C270.997 327.335 270.617 328.446 270.203 328.52C269.892 328.557 269.512 328.15 269.374 327.89C269.202 327.594 269.167 327.224 269.202 326.89C269.236 326.631 269.374 326.409 269.547 326.298C269.892 326.039 270.375 326.187 270.582 326.557ZM288.278 320.277C288.662 321.055 288.313 322.092 287.895 322.24C287.581 322.277 287.198 321.87 287.058 321.61C286.884 321.314 286.849 320.944 286.884 320.61C286.919 320.351 287.058 320.129 287.233 320.018C287.581 319.759 288.069 319.907 288.278 320.277Z" fill="#DE6903"/>
<path d="M337.359 415.844H399.136C400.061 415.844 400.81 416.593 400.81 417.517C400.81 418.441 400.061 419.19 399.136 419.19H337.359C336.434 419.19 335.685 418.441 335.685 417.517C335.685 416.593 336.434 415.844 337.359 415.844ZM406.65 415.844H445.708C446.633 415.844 447.383 416.593 447.383 417.517C447.383 418.441 446.633 419.19 445.708 419.19H406.65C405.725 419.19 404.975 418.441 404.975 417.517C404.975 416.593 405.725 415.844 406.65 415.844Z" fill="#F9A620"/>
<path d="M445.272 415.844H406.73L409.821 395.539H437.287L445.272 415.844ZM400.172 416.203C399.887 415.978 399.527 415.844 399.136 415.844H337.359C337.298 415.844 337.238 415.847 337.179 415.854C337.157 415.683 337.147 415.48 337.151 415.237C337.194 414.978 337.199 414.68 337.28 414.384C337.766 412.608 338.355 411.428 340.078 410.38C341.801 409.331 343.559 408.394 345.392 407.571C352.15 404.452 354.459 404.492 358.903 401.631C360.742 400.435 362.433 399.051 364.012 397.554C365.065 396.556 367.341 394.934 370.84 392.689L397.953 392.771L400.172 416.203Z" fill="#474961"/>
<path d="M444.955 328.466C444.892 346.655 444.267 370.818 444.051 379.129C444.013 380.287 444.165 383.419 441.893 385.394C441.249 385.973 440.605 386.211 439.394 386.722C438.447 387.131 434.206 388.357 425.725 389.038C425.195 389.072 424.627 389.106 424.059 389.072C415.312 388.765 413.154 388.22 409.784 387.267C407.55 386.654 405.922 384.747 405.695 382.5C404.635 372.592 401.719 345.591 401.492 343.207C401.189 340.177 400.924 336.738 400.697 332.822L400.576 330.989L390.098 326.864C394.474 343.597 398.719 360.929 402.514 378.159C402.704 379.003 403.044 380.903 402.06 382.697C400.242 386.11 395.509 385.934 384.188 387.271C370.86 388.854 365.294 390.508 362.265 387.13C361.243 386.04 360.902 384.914 360.788 384.386C358.024 370.7 344.318 330.98 338.979 302.483C338.979 302.413 338.941 302.377 338.941 302.307C337.237 293.125 343.636 284.47 353.14 283.309C356.283 282.922 359.122 282.549 362.265 282.162C363.217 282.051 364.167 282.019 365.107 282.061L412.021 281.248C439.846 281.006 436.015 277.78 444.715 281.779C450.516 284.445 454.465 292.034 456.563 304.546C457.314 314.059 453.445 322.033 444.955 328.466Z" fill="#8F4AFF"/>
<path opacity="0.176986" d="M445.003 328.43C445.006 327.48 445.008 326.546 445.008 325.632C445.008 318.55 445.045 312.455 445.121 308.539C445.197 305.441 445.765 288.416 438.419 284.875C437.776 284.568 437.132 284.33 435.844 283.887C434.822 283.547 429.521 281.776 422.706 282.049C418.276 282.219 411.612 282.491 406.121 286.748C398.549 292.638 398.738 301.934 398.814 303.432L400.626 331.009L390.153 326.885C387.236 315.729 384.26 304.838 381.32 294.42C379.312 287.33 372.601 282.422 365.238 282.059L412.021 281.248C439.846 281.006 436.015 277.78 444.715 281.779C450.516 284.445 454.465 292.034 456.563 304.546C457.313 314.042 453.46 322.003 445.003 328.43Z" fill="#444444"/>
<path d="M405.098 211.918C405.554 211.721 406.019 211.546 406.495 211.394L414.576 208.699C415.044 208.614 415.51 208.539 415.974 208.475C416.611 207.746 417.909 207.127 420.158 206.437C428.146 203.944 438.341 208.09 441.972 217.378C445.136 225.473 449.34 234.617 448.948 234.737C448.865 234.762 447.03 236.074 444.517 236.886C448.152 250.589 450.111 259.763 450.393 264.407C450.955 273.655 447.841 279.854 437.287 280.64C426.733 281.425 412.045 282.532 410.319 279.465C409.209 277.493 403.993 265.319 394.671 242.941C391.186 244.068 389.366 244.645 389.211 244.672C388.725 244.756 387.07 239.314 385.993 230.708C384.758 220.833 390.754 212.597 400.691 210.912C402.333 210.627 403.802 210.962 405.098 211.918Z" fill="#F9A620"/>
<path opacity="0.176986" d="M405.122 211.935C395.239 216.03 390.332 230.053 393.623 240.423C393.986 241.273 394.345 242.11 394.697 242.933C391.195 244.065 389.366 244.645 389.211 244.672C388.725 244.756 387.07 239.314 385.993 230.708C384.758 220.833 390.754 212.597 400.691 210.912C402.343 210.625 403.821 210.966 405.122 211.935Z" fill="#444444"/>
<path d="M388.807 213.09C388.807 213.09 388.087 215.915 391.912 215.134C395.736 214.354 396.834 213.982 396.834 213.982L395.849 211.417L388.807 213.09Z" fill="#482D1F"/>
<path d="M410.427 211.102L417.47 243.944L419.143 235.028C427.968 236.755 435.15 237.619 440.688 237.618C440.718 237.618 440.748 237.618 440.777 237.618C439.53 242.386 436.572 263.075 431.972 271.08C426.155 281.2 422.761 282.311 414.173 281.484C413.293 281.399 412.464 281.244 411.681 281.018C412.056 281.14 412.443 281.243 412.842 281.326L368.409 282.008L368.406 282.02L368.271 282.01L368.099 282.013C368.018 282.014 367.938 282.003 367.862 281.98L349.683 280.646C346.766 280.432 344.081 278.979 342.307 276.656L340.264 273.979C339.78 273.344 339.467 272.597 339.354 271.807C338.99 269.254 340.767 266.89 343.322 266.526L348.754 265.753C352.477 265.224 356.257 265.23 359.979 265.774L371.193 267.411C379.708 264.738 391.07 261.228 393.907 260.623L390.384 244.295L394.548 242.663C395.855 245.644 397.085 248.443 398.238 251.062C396.932 238.619 397.079 224.878 395.508 212.671L391.571 212.755C389.223 213.685 384.301 215.246 383.771 211.937C383.771 211.937 390.283 209.298 394.865 207.365L395.206 207.068C395.509 206.807 395.774 206.659 396.152 206.547C396.228 206.51 396.304 206.51 396.38 206.51L396.631 206.474C395.949 206.525 395.47 206.513 395.304 206.495C392.137 206.356 388.255 200.757 386.388 192.596C386.215 191.939 386.156 191.272 386.059 190.609L385.581 183.971C385.449 182.489 385.735 181.009 386.378 179.686C386.44 179.531 386.505 179.413 386.571 179.296C386.802 178.903 387.033 178.51 387.271 178.191C388.183 176.918 389.315 175.963 390.507 175.264C393.343 173.826 396.656 173.467 398.524 173.53C398.791 173.544 399.631 173.584 400.814 173.632C401.93 173.797 403 173.855 404.097 173.798C404.704 173.783 405.203 174.262 405.255 174.855L405.723 184.368C405.726 184.438 405.745 184.537 405.779 184.665C409.591 183.116 412.321 184 413.968 187.316C416.437 192.291 414.201 191.214 413.103 192.54C412.311 193.466 411.326 193.924 410.663 194.168C410.54 194.194 410.413 194.265 410.302 194.364L413.268 194.392L413.792 196.436L413.985 199.032L415.934 208.529C415.934 208.529 413.186 210.034 410.427 211.102ZM403.805 205.451L403.582 204.384C403.489 204.423 403.395 204.462 403.298 204.502C400.147 205.818 400.329 205.727 400.109 205.821C399.637 205.966 399.177 206.081 398.741 206.173L402.135 205.692L403.805 205.451ZM434.772 395.646H409.89L410.426 387.434C413.483 388.285 415.883 388.783 424.106 389.071C424.674 389.105 425.242 389.071 425.772 389.037C429.819 388.712 432.9 388.263 435.119 387.838L437.286 395.539L434.772 395.646ZM396.869 385.736L397.952 392.771H370.696L372.494 388.784C375.544 388.435 379.373 387.848 384.235 387.271C389.986 386.592 394.036 386.303 396.869 385.736Z" fill="#DB9E75"/>
<path d="M406.119 205.167L404.688 205.363L403.888 205.479C403.861 205.472 403.833 205.464 403.806 205.456L403.582 204.382L407.646 202.662C407.099 203.899 406.59 204.734 406.119 205.167Z" fill="#482D1F"/>
<path d="M388.787 191.793C388.922 192.453 389.169 193.514 388.91 194.021C388.489 194.841 387.01 193.177 387.124 191.898C387.191 191.37 387.436 191.125 387.737 191.099C388.224 191.02 388.669 191.318 388.787 191.793ZM396.834 190.392C396.969 191.052 397.216 192.113 396.957 192.621C396.536 193.441 395.057 191.776 395.171 190.498C395.238 189.97 395.483 189.725 395.784 189.699C396.271 189.62 396.716 189.917 396.834 190.392Z" fill="#482D1F"/>
<path d="M390.647 191.713L390.632 195.446C390.671 195.904 391.056 196.301 391.5 196.262C391.763 196.26 391.93 196.245 392.601 196.174C392.9 196.142 393.106 196.122 393.349 196.101C393.557 196.082 393.711 195.902 393.693 195.697C393.675 195.493 393.492 195.342 393.284 195.36C393.035 195.382 392.825 195.403 392.521 195.435C391.878 195.503 391.722 195.517 391.464 195.52C391.45 195.52 391.392 195.461 391.388 195.414L391.405 191.714C391.405 191.509 391.237 191.342 391.027 191.342C390.818 191.342 390.648 191.508 390.647 191.713Z" fill="#482D1F"/>
<path d="M394.109 198.201C394.367 198.105 394.985 197.79 395.027 197.414C395.021 197.34 395.049 197.225 395.008 197.191C394.84 197.019 394.363 197.209 393.694 197.379C392.503 197.668 391.485 197.755 391.485 197.755C391.485 197.755 391.881 198.356 392.086 198.525C392.54 198.933 393.708 198.385 394.109 198.201Z" fill="#482D1F"/>
<path d="M403.257 187.643L404.512 187.224C405.229 186.984 405.595 188.04 404.878 188.279L403.623 188.698L402.677 189.014C402.784 189.36 402.856 189.722 402.89 190.096C403.148 193 400.96 195.561 398.002 195.815C395.428 196.036 393.12 194.438 392.393 192.107L391.73 192.209L391.182 192.294C391.294 195.09 389.149 197.508 386.278 197.755C383.32 198.009 380.712 195.86 380.453 192.956C380.195 190.052 382.383 187.492 385.341 187.238C387.994 187.01 390.381 188.718 391.02 191.19L391.553 191.107L391.73 192.209C391.079 191.736 391.077 191.72 391.075 191.704L390.481 191.273L391.02 191.19C391.047 191.293 391.07 191.398 391.091 191.503C391.139 191.313 391.288 191.148 391.553 191.107L392.177 191.011C391.921 188.109 394.108 185.552 397.065 185.298C399.242 185.111 401.23 186.225 402.231 187.985L403.257 187.643ZM390.658 192.375C390.345 192.423 390.052 192.211 390.007 191.903C389.963 191.601 390.174 191.321 390.481 191.273L391.553 191.107L392.177 191.011C392.177 191.013 392.177 191.015 392.177 191.016C392.211 191.394 392.284 191.758 392.393 192.107L391.73 192.209L390.658 192.375ZM391.73 192.209C391.459 192.251 391.263 192.133 391.158 191.96L391.73 192.209ZM397.903 194.704C400.236 194.503 401.962 192.484 401.758 190.193C401.554 187.903 399.497 186.208 397.164 186.409C394.831 186.609 393.105 188.628 393.309 190.919C393.513 193.21 395.57 194.904 397.903 194.704ZM385.44 188.349C383.107 188.549 381.381 190.568 381.585 192.859C381.789 195.15 383.846 196.844 386.179 196.644C388.512 196.443 390.238 194.424 390.034 192.133C390.027 192.056 390.018 191.979 390.007 191.903C389.69 189.722 387.686 188.156 385.44 188.349Z" fill="#482D1F"/>
<path opacity="0.2" d="M412.821 281.326L368.388 282.008L368.384 282.02L368.249 282.01L368.078 282.013C367.996 282.014 367.917 282.003 367.841 281.98L349.661 280.646C346.744 280.432 344.059 278.979 342.286 276.656L340.243 273.979C339.759 273.344 339.445 272.596 339.332 271.807C338.968 269.254 340.745 266.89 343.301 266.526L348.732 265.753C352.456 265.223 356.236 265.23 359.957 265.774L371.172 267.411C379.686 264.738 391.048 261.228 393.885 260.623L390.363 244.295L394.527 242.663C395.91 245.818 397.207 248.77 398.418 251.519C398.629 253.155 398.874 254.784 399.16 256.402C401.956 271.007 405.196 279.735 412.821 281.326Z" fill="#8C2A00"/>
<path d="M417.077 244.139C416.988 243.844 417.16 243.534 417.46 243.446C417.761 243.359 418.077 243.527 418.166 243.822L421.915 256.238C422.004 256.533 421.832 256.844 421.532 256.931C421.231 257.019 420.915 256.85 420.826 256.555L417.077 244.139ZM440.801 238.073C440.487 238.071 440.235 237.82 440.237 237.512C440.239 237.204 440.496 236.956 440.809 236.958C442.39 236.97 443.873 236.744 445.262 236.28C445.559 236.181 445.881 236.337 445.982 236.629C446.083 236.92 445.924 237.237 445.627 237.336C444.116 237.84 442.506 238.086 440.801 238.073Z" fill="#482D1F"/>
<path d="M409.372 194.033C409.947 193.868 411.651 193.501 412.696 192.239C413.797 190.95 414.339 188.926 413.526 187.056C412.796 185.253 410.85 183.89 409.042 184.082C408.027 184.207 407.24 184.76 407.134 184.843C405.89 185.808 405.392 187.045 405.392 187.045L405.091 187.909C404.941 187.716 404.797 187.535 404.66 187.369C401.763 184.708 400.089 182.861 397.154 180.202C395.678 180.702 386.203 184.013 385.491 183.701C385.491 179.924 386.898 178.709 387.136 178.39C388.049 177.117 389.383 175.882 390.575 175.183C393.412 173.745 396.725 173.386 398.593 173.449C398.86 173.464 399.7 173.504 400.882 173.551C401.225 173.559 401.568 173.567 401.986 173.568C402.973 173.558 403.734 173.568 404.19 173.566C409.957 173.444 412.129 172.66 415.131 173.932C415.307 174.011 415.553 174.125 415.845 174.283C416.044 173.768 416.277 173.29 416.508 172.847C422.857 160.771 430.567 163.504 430.567 163.549C430.567 163.594 436.409 163.594 437.903 169.444C438.052 170.025 439.1 174.131 437.425 177.516C435.179 181.946 428.478 184.673 420.855 182.811C420.949 184.107 420.858 185.168 420.819 185.72C420.403 190.01 418.022 192.715 417.325 193.856C416.397 195.379 415.249 196.911 413.884 198.453C412.181 197.449 410.877 196.276 409.972 194.936C409.776 194.641 409.576 194.339 409.372 194.033Z" fill="#482D1F"/>
<path d="M333.892 271.896C338.166 267.725 346.891 264.455 361.308 272.695C363.507 273.91 362.705 277.731 360.268 277.725L335.149 277.556C333.261 277.568 332.467 273.299 333.892 271.896Z" fill="#474961"/>
<path d="M283.665 351.35H289.009C291.764 352.201 293.502 354.004 294.223 356.761C294.943 359.518 293.205 362.162 289.009 364.695L288.966 364.685L288.969 364.695H222.955C218.759 362.162 217.021 359.518 217.741 356.761C218.462 354.004 220.2 352.201 222.955 351.35H283.665Z" fill="#3ABF7C"/>
<path d="M310.149 186.909H190.066C185.351 186.909 181.5 183.422 181.5 179.152V107.53C181.5 103.26 185.351 99.7736 190.066 99.7736H310.149C314.864 99.7736 318.715 103.26 318.715 107.53V179.117C318.715 183.422 314.864 186.909 310.149 186.909Z" fill="#F2F6FB"/>
<path d="M181.539 99.3045C181.539 94.968 185.058 91.4525 189.398 91.4525H310.816C315.157 91.4525 318.676 94.97 318.676 99.3045V108.33H181.539V99.3045Z" fill="#E1E5F0"/>
<path d="M202.66 140.123H217.788C219.036 140.123 220.047 141.133 220.047 142.38C220.047 143.626 219.036 144.636 217.788 144.636H202.66C201.412 144.636 200.4 143.626 200.4 142.38C200.4 141.133 201.412 140.123 202.66 140.123ZM202.66 165.243H217.788C219.036 165.243 220.047 166.253 220.047 167.5C220.047 168.746 219.036 169.756 217.788 169.756H202.66C201.412 169.756 200.4 168.746 200.4 167.5C200.4 166.253 201.412 165.243 202.66 165.243ZM225.843 140.123H240.972C242.219 140.123 243.231 141.133 243.231 142.38C243.231 143.626 242.219 144.636 240.972 144.636H225.843C224.595 144.636 223.584 143.626 223.584 142.38C223.584 141.133 224.595 140.123 225.843 140.123ZM225.843 165.243H240.972C242.219 165.243 243.231 166.253 243.231 167.5C243.231 168.746 242.219 169.756 240.972 169.756H225.843C224.595 169.756 223.584 168.746 223.584 167.5C223.584 166.253 224.595 165.243 225.843 165.243ZM249.027 140.123H264.155C265.403 140.123 266.415 141.133 266.415 142.38C266.415 143.626 265.403 144.636 264.155 144.636H249.027C247.779 144.636 246.767 143.626 246.767 142.38C246.767 141.133 247.779 140.123 249.027 140.123ZM249.027 165.243H264.155C265.403 165.243 266.415 166.253 266.415 167.5C266.415 168.746 265.403 169.756 264.155 169.756H249.027C247.779 169.756 246.767 168.746 246.767 167.5C246.767 166.253 247.779 165.243 249.027 165.243ZM202.66 127.563H230.755C232.003 127.563 233.015 128.573 233.015 129.82C233.015 131.066 232.003 132.076 230.755 132.076H202.66C201.412 132.076 200.4 131.066 200.4 129.82C200.4 128.573 201.412 127.563 202.66 127.563ZM266.316 127.563H297.948C299.196 127.563 300.207 128.573 300.207 129.82C300.207 131.066 299.196 132.076 297.948 132.076H266.316C265.068 132.076 264.057 131.066 264.057 129.82C264.057 128.573 265.068 127.563 266.316 127.563ZM266.316 152.683H297.948C299.196 152.683 300.207 153.693 300.207 154.94C300.207 156.186 299.196 157.196 297.948 157.196H266.316C265.068 157.196 264.057 156.186 264.057 154.94C264.057 153.693 265.068 152.683 266.316 152.683ZM238.81 152.683H244.508C245.756 152.683 246.767 153.693 246.767 154.94C246.767 156.186 245.756 157.196 244.508 157.196H238.81C237.563 157.196 236.551 156.186 236.551 154.94C236.551 153.693 237.563 152.683 238.81 152.683ZM252.563 127.563H258.261C259.509 127.563 260.52 128.573 260.52 129.82C260.52 131.066 259.509 132.076 258.261 132.076H252.563C251.315 132.076 250.304 131.066 250.304 129.82C250.304 128.573 251.315 127.563 252.563 127.563ZM272.21 140.123H297.948C299.196 140.123 300.207 141.133 300.207 142.38C300.207 143.626 299.196 144.636 297.948 144.636H272.21C270.963 144.636 269.951 143.626 269.951 142.38C269.951 141.133 270.963 140.123 272.21 140.123Z" fill="#E1E5F0"/>
<path d="M202.66 152.683H230.755C232.003 152.683 233.015 153.693 233.015 154.939C233.015 156.186 232.003 157.196 230.755 157.196H202.66C201.412 157.196 200.4 156.186 200.4 154.939C200.4 153.693 201.412 152.683 202.66 152.683ZM252.563 152.683H258.261C259.509 152.683 260.52 153.693 260.52 154.939C260.52 156.186 259.509 157.196 258.261 157.196H252.563C251.316 157.196 250.304 156.186 250.304 154.939C250.304 153.693 251.316 152.683 252.563 152.683Z" fill="#A339FF"/>
<path d="M238.81 127.563H244.508C245.756 127.563 246.767 128.573 246.767 129.819C246.767 131.066 245.756 132.076 244.508 132.076H238.81C237.562 132.076 236.551 131.066 236.551 129.819C236.551 128.573 237.562 127.563 238.81 127.563ZM272.21 165.243H297.948C299.196 165.243 300.207 166.253 300.207 167.499C300.207 168.746 299.196 169.756 297.948 169.756H272.21C270.962 169.756 269.951 168.746 269.951 167.499C269.951 166.253 270.962 165.243 272.21 165.243Z" fill="#FF5645"/>
<path d="M201.579 79.285H152.461C148.121 79.285 144.603 82.7995 144.603 87.135V111.862C144.603 116.198 148.121 119.712 152.461 119.712H201.579C205.919 119.712 209.438 116.198 209.438 111.862V87.135C209.438 82.7995 205.919 79.285 201.579 79.285Z" fill="#01CC8F"/>
<path d="M165.561 90.275L152.461 100.804L166.214 108.33" stroke="white" stroke-width="4.35294" stroke-linecap="round" stroke-linejoin="round"/>
<path d="M187.252 108.33L200.4 99.322L186.647 90.275" stroke="white" stroke-width="4.35294" stroke-linecap="round" stroke-linejoin="round"/>
<path d="M173.287 112.798L179.273 86.4968" stroke="white" stroke-width="4.35294" stroke-linecap="round" stroke-linejoin="round"/>
<path d="M215.921 363.854C215.986 363.85 216.052 363.847 216.118 363.847H294.313C295.832 363.847 297.063 365.078 297.063 366.595C297.063 368.112 295.832 369.342 294.313 369.342H216.118C216.052 369.342 215.986 369.34 215.921 369.336V416.639C215.921 418.156 214.69 419.386 213.171 419.386C211.651 419.386 210.42 418.156 210.42 416.639L210.42 280.441C210.42 279.119 211.355 278.015 212.6 277.753C212.953 277.589 213.346 277.497 213.76 277.497H447.56C449.079 277.497 450.311 278.728 450.311 280.245C450.311 281.762 449.079 282.992 447.56 282.992H215.921V363.854Z" fill="#D8DEED"/>
<path d="M270.216 271.611L273.995 256.381H245.628C242.681 256.381 240.245 254.144 240.245 251.435V208.3C240.206 205.552 242.603 203.315 245.589 203.315H331.918C334.865 203.315 337.302 205.552 337.302 208.26V251.435C337.302 254.144 334.865 256.381 331.918 256.381H297.349L295.789 271.611H306.024C307.596 271.611 308.814 272.867 308.814 274.398C308.814 275.968 307.556 277.184 306.024 277.184H262.211C260.639 277.184 259.421 275.928 259.421 274.398C259.343 272.867 260.639 271.611 262.211 271.611H270.216Z" fill="#474961"/>
<path fill-rule="evenodd" clip-rule="evenodd" d="M298.52 245.281L298.637 271.65H295.819L298.52 245.281Z" fill="white"/>
</svg>
